<svg width="158" height="30" viewBox="0 0 158 30" fill="none" xmlns="http://www.w3.org/2000/svg">
<g clip-path="url(#clip0_537_1518)">
<path fill-rule="evenodd" clip-rule="evenodd" d="M20.0779 0H23.5841C24.0104 6.00649e-05 24.4233 0.147625 24.7524 0.417456C25.0814 0.687286 25.3062 1.06262 25.3882 1.47927C25.5333 2.21843 25.7073 3.10695 25.8438 3.79919C25.9927 4.55845 25.788 5.27655 25.2863 5.75144L22.6413 8.25041C22.1396 8.72435 21.9349 9.44244 22.0838 10.2017L25.9764 30.001H22.4731C22.047 30.0009 21.6342 29.8533 21.3053 29.5834C20.9764 29.3136 20.7518 28.9383 20.67 28.5217C19.9857 25.0413 18.2835 16.3869 17.6569 13.2024C17.5079 12.4422 17.7136 11.7241 18.2153 11.2501C18.9707 10.5349 20.1029 9.46542 20.8593 8.75116C21.362 8.27243 21.5667 7.55817 21.4178 6.7989L20.0808 0.000958392L20.0779 0Z" fill="#7645D9"/>
<path fill-rule="evenodd" clip-rule="evenodd" d="M10.0381 -7.85256e-05H13.5452C13.9713 0.000203393 14.384 0.14787 14.7129 0.417681C15.0417 0.687493 15.2664 1.0627 15.3483 1.47919L17.1466 10.6229C17.2253 11.0568 17.1931 11.5035 17.053 11.9218C16.9129 12.3401 16.6695 12.7166 16.345 13.0166L14.2574 14.9899C13.9329 15.2898 13.6894 15.6663 13.5491 16.0845C13.4089 16.5028 13.3765 16.9495 13.4549 17.3835C14.1498 20.9079 15.9365 30.0009 15.9365 30.0009H12.4313C12.005 30.001 11.592 29.8535 11.2629 29.5836C10.9338 29.3138 10.7091 28.9383 10.6272 28.5216C10.2072 26.3836 9.43545 22.458 9.02601 20.3784C8.94777 19.9445 8.98016 19.498 9.12021 19.0797C9.26026 18.6615 9.50349 18.285 9.82759 17.9848L11.9152 16.0124C12.2395 15.7124 12.483 15.336 12.623 14.9177C12.7631 14.4994 12.7953 14.0527 12.7167 13.6188C11.9872 9.91056 10.0381 -0.00390625 10.0381 -0.00390625V-7.85256e-05Z" fill="#7645D9"/>
<path fill-rule="evenodd" clip-rule="evenodd" d="M0 -1.33514e-05H3.5062C3.93236 0.000229194 4.34522 0.147859 4.67425 0.417659C5.00328 0.687458 5.22808 1.06269 5.31024 1.47926C6.01475 5.06589 7.80917 14.1866 8.49253 17.667C8.57116 18.1008 8.53905 18.5474 8.39915 18.9657C8.25925 19.3839 8.01606 19.7605 7.69192 20.0606C7.0518 20.6638 6.24253 21.4288 5.60434 22.033C5.27993 22.333 5.03642 22.7094 4.89619 23.1277C4.75596 23.546 4.7235 23.9926 4.8018 24.4266C5.20067 26.4536 5.89845 30.0048 5.89845 30.0048H2.39225C1.96615 30.0047 1.55334 29.8571 1.22443 29.5872C0.895518 29.3174 0.670959 28.9421 0.589173 28.5255C0.518049 28.1655 0.443081 27.7816 0.372919 27.4263C0.294231 26.9924 0.326406 26.5457 0.466486 26.1274C0.606565 25.7091 0.850045 25.3327 1.1745 25.0327L3.26207 23.0603C3.58653 22.7604 3.83 22.3839 3.97008 21.9656C4.11016 21.5473 4.14234 21.1006 4.06365 20.6667L0 -1.33514e-05Z" fill="#7645D9"/>
<path d="M20.0779 0H23.5841C24.0104 6.00649e-05 24.4233 0.147625 24.7524 0.417456C25.0814 0.687286 25.3062 1.06262 25.3882 1.47927C25.5333 2.21843 25.7073 3.10695 25.8438 3.79919C25.9927 4.55845 25.788 5.27655 25.2863 5.75144L22.6413 8.25041C22.1396 8.72435 21.9349 9.44244 22.0838 10.2017L25.9764 30.001H22.4731C22.047 30.0009 21.6342 29.8533 21.3053 29.5834C20.9764 29.3136 20.7518 28.9383 20.67 28.5217C19.9857 25.0413 18.2835 16.3869 17.6569 13.2024C17.5079 12.4422 17.7136 11.7241 18.2153 11.2501C18.9707 10.5349 20.1029 9.46542 20.8593 8.75116C21.362 8.27243 21.5667 7.55817 21.4178 6.7989L20.0808 0.000958392L20.0779 0Z" fill="url(#paint0_linear_537_1518)"/>
<path d="M10.0381 -7.85256e-05H13.5452C13.9713 0.000203393 14.384 0.14787 14.7129 0.417681C15.0417 0.687493 15.2664 1.0627 15.3483 1.47919L17.1466 10.6229C17.2253 11.0568 17.1931 11.5035 17.053 11.9218C16.9129 12.3401 16.6695 12.7166 16.345 13.0166L14.2574 14.9899C13.9329 15.2898 13.6894 15.6663 13.5491 16.0845C13.4089 16.5028 13.3765 16.9495 13.4549 17.3835C14.1498 20.9079 15.9365 30.0009 15.9365 30.0009H12.4313C12.005 30.001 11.592 29.8535 11.2629 29.5836C10.9338 29.3138 10.7091 28.9383 10.6272 28.5216C10.2072 26.3836 9.43545 22.458 9.02601 20.3784C8.94777 19.9445 8.98016 19.498 9.12021 19.0797C9.26026 18.6615 9.50349 18.285 9.82759 17.9848L11.9152 16.0124C12.2395 15.7124 12.483 15.336 12.623 14.9177C12.7631 14.4994 12.7953 14.0527 12.7167 13.6188C11.9872 9.91056 10.0381 -0.00390625 10.0381 -0.00390625V-7.85256e-05Z" fill="url(#paint1_linear_537_1518)"/>
<path d="M0 -1.33514e-05H3.5062C3.93236 0.000229194 4.34522 0.147859 4.67425 0.417659C5.00328 0.687458 5.22808 1.06269 5.31024 1.47926C6.01475 5.06589 7.80917 14.1866 8.49253 17.667C8.57116 18.1008 8.53905 18.5474 8.39915 18.9657C8.25925 19.3839 8.01606 19.7605 7.69192 20.0606C7.0518 20.6638 6.24253 21.4288 5.60434 22.033C5.27993 22.333 5.03642 22.7094 4.89619 23.1277C4.75596 23.546 4.7235 23.9926 4.8018 24.4266C5.20067 26.4536 5.89845 30.0048 5.89845 30.0048H2.39225C1.96615 30.0047 1.55334 29.8571 1.22443 29.5872C0.895518 29.3174 0.670959 28.9421 0.589173 28.5255C0.518049 28.1655 0.443081 27.7816 0.372919 27.4263C0.294231 26.9924 0.326406 26.5457 0.466486 26.1274C0.606565 25.7091 0.850045 25.3327 1.1745 25.0327L3.26207 23.0603C3.58653 22.7604 3.83 22.3839 3.97008 21.9656C4.11016 21.5473 4.14234 21.1006 4.06365 20.6667L0 -1.33514e-05Z" fill="url(#paint2_linear_537_1518)"/>
<path d="M34.5547 20.6401V9.35938H37.3516L40.4272 15.6135L43.4865 9.35938H46.2651V20.6401H43.4355V14.1591L41.2019 18.7137H39.6371L37.3862 14.1591V20.6401H34.5547Z" fill="black"/>
<path d="M48.5 20.6401V9.35938H56.8532V11.5309H51.3315V13.8958H56.2025V16.1037H51.3315V18.4686H56.8532V20.6401H48.5Z" fill="black"/>
<path d="M62.2538 20.8187C61.5497 20.8226 60.8464 20.7666 60.1519 20.6511C59.5741 20.5631 59.0098 20.4022 58.4728 20.1724V17.7701C59.0259 18.0043 59.6 18.1861 60.1874 18.313C60.7725 18.448 61.3707 18.5183 61.9713 18.5227C62.6761 18.5227 63.2009 18.4589 63.5456 18.3312C63.8903 18.2036 64.0633 17.9233 64.0646 17.4906C64.0707 17.3627 64.0513 17.2349 64.0074 17.1146C63.9635 16.9943 63.8961 16.8838 63.809 16.7897C63.6398 16.6155 63.3643 16.4607 62.9824 16.3253C62.6005 16.19 62.0818 16.0305 61.4263 15.8466C60.6529 15.6143 60.0375 15.3545 59.58 15.0672C59.1589 14.8202 58.8174 14.4585 58.5958 14.0246C58.3959 13.6167 58.2962 13.1147 58.2969 12.5185C58.2969 11.4442 58.6836 10.6211 59.457 10.0492C60.2304 9.4773 61.3735 9.19006 62.8863 9.18751C63.5281 9.18686 64.1689 9.23681 64.8028 9.33687C65.3152 9.41143 65.821 9.52572 66.3156 9.67868V12.0963C65.3578 11.7198 64.3378 11.525 63.3082 11.5218C62.7899 11.5079 62.2722 11.5669 61.7704 11.697C61.377 11.8138 61.1806 12.0825 61.1812 12.5032C61.1713 12.7179 61.247 12.9278 61.3917 13.0872C61.5333 13.2347 61.7768 13.3662 62.1222 13.4817C62.4675 13.5972 62.9394 13.7373 63.5379 13.902C64.4644 14.1471 65.1738 14.442 65.6659 14.7867C66.158 15.1314 66.4985 15.5272 66.6875 15.974C66.8803 16.4565 66.9753 16.9723 66.9672 17.4915C66.9791 17.956 66.88 18.4166 66.6781 18.8354C66.4763 19.2542 66.1774 19.6193 65.8062 19.9005C65.0321 20.512 63.848 20.8181 62.2538 20.8187Z" fill="black"/>
<path d="M74.1369 20.8187C72.2954 20.8187 70.8944 20.3514 69.9339 19.417C68.9734 18.4825 68.4928 17.0284 68.4922 15.0548C68.4922 12.965 68.9728 11.465 69.9339 10.5547C70.895 9.64453 72.296 9.18878 74.1369 9.1875C75.9765 9.1875 77.3772 9.64325 78.339 10.5547C79.3007 11.4662 79.7813 12.9663 79.7806 15.0548C79.7806 17.0278 79.3001 18.4819 78.339 19.417C77.3778 20.3521 75.9771 20.8193 74.1369 20.8187ZM74.1369 18.4183C75.0865 18.4183 75.7811 18.1467 76.2206 17.6035C76.6602 17.0603 76.88 16.2108 76.88 15.0548C76.88 13.7941 76.6602 12.9034 76.2206 12.3825C75.7811 11.8617 75.0865 11.6022 74.1369 11.6041C73.1758 11.6041 72.4751 11.8636 72.0349 12.3825C71.5947 12.9015 71.3749 13.7922 71.3756 15.0548C71.3756 16.2108 71.5954 17.0603 72.0349 17.6035C72.4745 18.1467 73.1751 18.4183 74.1369 18.4183Z" fill="black"/>
<path d="M85.8828 20.6401V9.35938H94.113V11.5309H88.7143V13.8958H93.4623V16.1037H88.7143V20.6401H85.8828Z" fill="black"/>
<path d="M95.6406 20.6401V9.35938H98.4721V20.6401H95.6406Z" fill="black"/>
<path d="M100.711 20.6401V9.35938H103.139L107.957 16.1037V9.35938H110.803V20.6401H108.362L103.542 13.914V20.6401H100.711Z" fill="black"/>
<path d="M112.684 20.6401L117.009 9.35938H120.069L124.394 20.6401H121.44L120.421 18.0828H116.64L115.638 20.6401H112.684ZM117.027 15.9984H120.034L118.521 12.0728L117.027 15.9984Z" fill="black"/>
<path d="M126.273 20.6401V9.35938H128.7L133.519 16.1037V9.35938H136.367V20.6401H133.923L129.105 13.914V20.6401H126.273Z" fill="black"/>
<path d="M144.334 20.8162C142.353 20.8162 140.843 20.311 139.806 19.3006C138.769 18.2901 138.25 16.8858 138.25 15.0877C138.25 13.2086 138.757 11.7548 139.771 10.7265C140.784 9.69822 142.3 9.18406 144.317 9.18406C144.939 9.17798 145.56 9.23088 146.172 9.34204C146.706 9.44478 147.232 9.58525 147.746 9.76237V12.2326C146.726 11.8117 145.631 11.5972 144.527 11.6016C143.355 11.6016 142.497 11.8815 141.951 12.4413C141.406 13.0011 141.133 13.8829 141.133 15.0868C141.133 16.2319 141.422 17.0729 141.998 17.6097C142.575 18.1465 143.431 18.4152 144.566 18.4159C145.114 18.4161 145.661 18.3661 146.199 18.2665C146.737 18.1683 147.261 18.013 147.765 17.8031V20.2925C147.254 20.4597 146.73 20.5877 146.199 20.6755C145.583 20.774 144.959 20.8211 144.334 20.8162Z" fill="black"/>
<path d="M149.648 20.6401V9.35938H158.002V11.5309H152.48V13.8958H157.351V16.1037H152.48V18.4686H158.002V20.6401H149.648Z" fill="black"/>
</g>
<defs>
<linearGradient id="paint0_linear_537_1518" x1="0.000927242" y1="15.0005" x2="25.9764" y2="15.0005" gradientUnits="userSpaceOnUse">
<stop stop-color="#1FC7D4"/>
<stop offset="1" stop-color="#7645D9"/>
</linearGradient>
<linearGradient id="paint1_linear_537_1518" x1="4.47054e-05" y1="15.0004" x2="25.9755" y2="15.0004" gradientUnits="userSpaceOnUse">
<stop stop-color="#1FC7D4"/>
<stop offset="1" stop-color="#7645D9"/>
</linearGradient>
<linearGradient id="paint2_linear_537_1518" x1="0" y1="15.0005" x2="25.9755" y2="15.0005" gradientUnits="userSpaceOnUse">
<stop stop-color="#1FC7D4"/>
<stop offset="1" stop-color="#7645D9"/>
</linearGradient>
<clipPath id="clip0_537_1518">
<rect width="158" height="30" fill="white"/>
</clipPath>
</defs>
</svg>
