<svg width="21" height="20" viewBox="0 0 21 20" fill="none" xmlns="http://www.w3.org/2000/svg">
<g filter="url(#filter0_dd_2676_14105)">
<circle cx="11" cy="10.0002" r="8" fill="white"/>
</g>
<g clip-path="url(#clip0_2676_14105)">
<rect x="3" y="2" width="16" height="16" rx="8" fill="white"/>
<path d="M19 10C19 14.4183 15.4183 18 11 18C6.58172 18 3 14.4183 3 10C3 5.58172 6.58172 2 11 2C15.4183 2 19 5.58172 19 10Z" fill="white"/>
<path d="M14.66 7.7936H13.4803C13.3431 7.7936 13.2123 7.7347 13.121 7.63235L12.6428 7.09425C12.5717 7.0142 12.4689 6.96788 12.3616 6.96788C12.2542 6.96788 12.1515 7.01363 12.0803 7.09425L11.6699 7.55629C11.5356 7.70726 11.3427 7.79417 11.1401 7.79417H4.68463C4.50095 8.31625 4.38098 8.8675 4.33333 9.4399H10.4277C10.535 9.4399 10.6372 9.39644 10.7113 9.31924L11.279 8.72968C11.3496 8.65592 11.4477 8.61418 11.5499 8.61418H11.5734C11.6808 8.61418 11.7835 8.65992 11.8547 8.74055L12.3329 9.27864C12.4241 9.381 12.5544 9.4399 12.6922 9.4399H17.6667C17.619 8.8675 17.4991 8.31625 17.3154 7.79417L14.66 7.7936Z" fill="white"/>
<path d="M8.02199 12.8989C8.12933 12.8989 8.2315 12.8554 8.30555 12.7782L8.87326 12.1887C8.94386 12.1149 9.04202 12.0732 9.14419 12.0732H9.16773C9.27507 12.0732 9.37782 12.1189 9.449 12.1995L9.92716 12.7376C10.0184 12.84 10.1487 12.8989 10.2865 12.8989H17.0278C17.2804 12.3791 17.4652 11.821 17.5754 11.2372H11.105C10.9679 11.2372 10.837 11.1783 10.7457 11.0759L10.2675 10.5378C10.1964 10.4578 10.0936 10.4114 9.98628 10.4114C9.87894 10.4114 9.77619 10.4572 9.70501 10.5378L9.29459 10.9998C9.16027 11.1508 8.9674 11.2377 8.76477 11.2377H4.42575C4.53596 11.8221 4.7208 12.3797 4.97337 12.8995L8.02199 12.8989Z" fill="white"/>
<path d="M12.8041 5.99577C12.9115 5.99577 13.0137 5.95231 13.0877 5.87511L13.6554 5.28556C13.726 5.21179 13.8242 5.17005 13.9264 5.17005H13.9499C14.0572 5.17005 14.16 5.21579 14.2312 5.29642L14.7093 5.83451C14.8006 5.93687 14.9309 5.99577 15.0687 5.99577H16.3504C15.1295 4.37921 13.1876 3.33333 11.0006 3.33333C8.81356 3.33333 6.87165 4.37921 5.65071 5.99577H12.8041Z" fill="white"/>
<path d="M10.2291 14.5463H8.47603C8.33884 14.5463 8.20797 14.4874 8.1167 14.3851L7.63854 13.847C7.56736 13.7669 7.46461 13.7206 7.35727 13.7206C7.24993 13.7206 7.14718 13.7664 7.076 13.847L6.66558 14.309C6.53126 14.46 6.33839 14.5469 6.13576 14.5469H6.1082C7.32972 15.8507 9.06842 16.6667 11 16.6667C12.9316 16.6667 14.6703 15.8507 15.8918 14.5469L10.2291 14.5463Z" fill="white"/>
<path d="M14.6596 7.79352H13.48C13.3428 7.79352 13.2119 7.73462 13.1207 7.63226L12.6425 7.09417C12.5713 7.01412 12.4686 6.9678 12.3612 6.9678C12.2539 6.9678 12.1512 7.01355 12.08 7.09417L11.6696 7.55621C11.5352 7.70717 11.3424 7.79409 11.1397 7.79409H4.68431C4.50062 8.31617 4.38065 8.86741 4.33301 9.43982H10.4274C10.5347 9.43982 10.6369 9.39636 10.7109 9.31916L11.2786 8.7296C11.3493 8.65584 11.4474 8.61409 11.5496 8.61409H11.5731C11.6805 8.61409 11.7832 8.65984 11.8544 8.74047L12.3325 9.27856C12.4238 9.38092 12.5541 9.43982 12.6919 9.43982H17.6663C17.6187 8.86741 17.4987 8.31617 17.315 7.79409L14.6596 7.79352Z" fill="black"/>
<path d="M8.02166 12.8988C8.129 12.8988 8.23118 12.8553 8.30523 12.7782L8.87293 12.1886C8.94354 12.1148 9.04169 12.0731 9.14387 12.0731H9.1674C9.27475 12.0731 9.37749 12.1188 9.44867 12.1995L9.92683 12.7375C10.0181 12.8399 10.1484 12.8988 10.2862 12.8988H17.0275C17.28 12.379 17.4649 11.8209 17.5751 11.2371H11.1047C10.9675 11.2371 10.8367 11.1782 10.7454 11.0758L10.2672 10.5377C10.196 10.4577 10.0933 10.4114 9.98595 10.4114C9.87861 10.4114 9.77586 10.4571 9.70469 10.5377L9.29426 10.9998C9.15994 11.1507 8.96707 11.2376 8.76444 11.2376H4.42542C4.53564 11.8221 4.72047 12.3796 4.97304 12.8994L8.02166 12.8988Z" fill="black"/>
<path d="M12.8038 5.99569C12.9112 5.99569 13.0133 5.95223 13.0874 5.87503L13.6551 5.28548C13.7257 5.21171 13.8239 5.16997 13.926 5.16997H13.9496C14.0569 5.16997 14.1597 5.21571 14.2308 5.29634L14.709 5.83443C14.8003 5.93679 14.9306 5.99569 15.0683 5.99569H16.3501C15.1292 4.37913 13.1873 3.33325 11.0002 3.33325C8.81323 3.33325 6.87132 4.37913 5.65038 5.99569H12.8038Z" fill="black"/>
<path d="M10.2288 14.5462H8.47571C8.33852 14.5462 8.20764 14.4873 8.11637 14.385L7.63822 13.8469C7.56704 13.7668 7.46429 13.7205 7.35694 13.7205C7.2496 13.7205 7.14685 13.7663 7.07568 13.8469L6.66525 14.3089C6.53093 14.4599 6.33806 14.5468 6.13543 14.5468H6.10788C7.32939 15.8506 9.0681 16.6666 10.9997 16.6666C12.9313 16.6666 14.67 15.8506 15.8915 14.5468L10.2288 14.5462Z" fill="black"/>
</g>
<defs>
<filter id="filter0_dd_2676_14105" x="0" y="0.000244141" width="22" height="22" filterUnits="userSpaceOnUse" color-interpolation-filters="sRGB">
<feFlood flood-opacity="0" result="BackgroundImageFix"/>
<feColorMatrix in="SourceAlpha" type="matrix" values="0 0 0 0 0 0 0 0 0 0 0 0 0 0 0 0 0 0 127 0" result="hardAlpha"/>
<feOffset dy="1"/>
<feGaussianBlur stdDeviation="1"/>
<feColorMatrix type="matrix" values="0 0 0 0 0.0627451 0 0 0 0 0.0941176 0 0 0 0 0.156863 0 0 0 0.06 0"/>
<feBlend mode="normal" in2="BackgroundImageFix" result="effect1_dropShadow_2676_14105"/>
<feColorMatrix in="SourceAlpha" type="matrix" values="0 0 0 0 0 0 0 0 0 0 0 0 0 0 0 0 0 0 127 0" result="hardAlpha"/>
<feOffset dy="1"/>
<feGaussianBlur stdDeviation="1.5"/>
<feColorMatrix type="matrix" values="0 0 0 0 0.0627451 0 0 0 0 0.0941176 0 0 0 0 0.156863 0 0 0 0.1 0"/>
<feBlend mode="normal" in2="effect1_dropShadow_2676_14105" result="effect2_dropShadow_2676_14105"/>
<feBlend mode="normal" in="SourceGraphic" in2="effect2_dropShadow_2676_14105" result="shape"/>
</filter>
<clipPath id="clip0_2676_14105">
<rect x="3" y="2" width="16" height="16" rx="8" fill="white"/>
</clipPath>
</defs>
</svg>
