<svg width="177" height="44" viewBox="0 0 177 44" fill="none" xmlns="http://www.w3.org/2000/svg">
<path fill-rule="evenodd" clip-rule="evenodd" d="M32.1191 7.39667H35.474C35.8818 7.39672 36.277 7.54038 36.5918 7.80306C36.9067 8.06575 37.1217 8.43114 37.2002 8.83676C37.3391 9.55633 37.5055 10.4213 37.6361 11.0952C37.7786 11.8344 37.5828 12.5334 37.1027 12.9958L34.5718 15.4285C34.0918 15.8899 33.8959 16.589 34.0384 17.3282L37.763 36.603H34.4109C34.0032 36.6029 33.6082 36.4592 33.2935 36.1965C32.9788 35.9338 32.7639 35.5684 32.6856 35.1629C32.0309 31.7747 30.4022 23.3495 29.8025 20.2493C29.66 19.5093 29.8568 18.8102 30.3369 18.3488C31.0597 17.6525 32.143 16.6114 32.8668 15.916C33.3478 15.45 33.5437 14.7546 33.4011 14.0155L32.1219 7.3976L32.1191 7.39667Z" fill="#7F56D9"/>
<path fill-rule="evenodd" clip-rule="evenodd" d="M22.5144 7.39704H25.8702C26.2779 7.39731 26.6728 7.54107 26.9874 7.80373C27.3021 8.0664 27.517 8.43167 27.5955 8.83713L29.3161 17.7386C29.3914 18.1611 29.3606 18.5959 29.2266 19.0032C29.0926 19.4104 28.8596 19.7769 28.5491 20.0689L26.5517 21.9899C26.2412 22.282 26.0081 22.6484 25.8739 23.0556C25.7398 23.4628 25.7087 23.8977 25.7838 24.3202C26.4487 27.7512 28.1583 36.6033 28.1583 36.6033H24.8043C24.3965 36.6035 24.0013 36.4599 23.6863 36.1972C23.3714 35.9344 23.1564 35.5689 23.0782 35.1632C22.6763 33.0819 21.9378 29.2603 21.546 27.2358C21.4712 26.8133 21.5022 26.3786 21.6362 25.9715C21.7702 25.5643 22.0029 25.1978 22.313 24.9055L24.3105 22.9854C24.6209 22.6933 24.8538 22.3269 24.9878 21.9196C25.1218 21.5124 25.1527 21.0776 25.0775 20.6552C24.3795 17.0452 22.5144 7.39331 22.5144 7.39331V7.39704Z" fill="#7F56D9"/>
<path fill-rule="evenodd" clip-rule="evenodd" d="M12.9097 7.3967H16.2645C16.6723 7.39694 17.0673 7.54066 17.3822 7.80331C17.697 8.06596 17.9121 8.43126 17.9907 8.83679C18.6648 12.3284 20.3818 21.2076 21.0357 24.5957C21.1109 25.0181 21.0802 25.4529 20.9463 25.86C20.8124 26.2672 20.5798 26.6338 20.2696 26.926C19.6571 27.5132 18.8828 28.2579 18.2721 28.8461C17.9617 29.1382 17.7287 29.5046 17.5945 29.9118C17.4604 30.319 17.4293 30.7538 17.5042 31.1763C17.8859 33.1496 18.5535 36.6067 18.5535 36.6067H15.1987C14.791 36.6066 14.396 36.4629 14.0812 36.2002C13.7665 35.9376 13.5517 35.5722 13.4734 35.1666C13.4054 34.8162 13.3336 34.4424 13.2665 34.0966C13.1912 33.6742 13.222 33.2393 13.356 32.8321C13.4901 32.4249 13.723 32.0584 14.0335 31.7664L16.0309 29.8462C16.3414 29.5542 16.5744 29.1877 16.7084 28.7805C16.8424 28.3733 16.8732 27.9384 16.7979 27.516L12.9097 7.3967Z" fill="#7F56D9"/>
<path d="M32.1219 7.3976L35.4774 7.39667C35.8852 7.39672 36.2803 7.54038 36.5952 7.80306C36.91 8.06575 37.1251 8.43114 37.2035 8.83676C37.3424 9.55633 37.5089 10.4213 37.6395 11.0952C37.782 11.8344 37.5861 12.5334 37.1061 12.9958L34.5752 15.4285C34.0951 15.8899 33.8993 16.589 34.0418 17.3282L37.7664 36.603H34.4143C34.0065 36.6029 33.6115 36.4592 33.2968 36.1965C32.9821 35.9338 32.7673 35.5684 32.689 35.1629C32.0342 31.7747 30.4055 23.3495 29.8059 20.2493C29.6634 19.5093 29.8602 18.8102 30.3402 18.3488C31.0631 17.6525 32.1464 16.6114 32.8702 15.916C33.3511 15.45 33.547 14.7546 33.4045 14.0155L32.1253 7.3976H32.1219Z" fill="#7F56D9"/>
<path d="M22.5144 7.39704H25.8702C26.2779 7.39731 26.6728 7.54107 26.9874 7.80373C27.3021 8.0664 27.517 8.43167 27.5955 8.83713L29.3161 17.7386C29.3914 18.1611 29.3606 18.5959 29.2266 19.0032C29.0926 19.4104 28.8596 19.7769 28.5491 20.0689L26.5517 21.9899C26.2412 22.282 26.0081 22.6484 25.8739 23.0556C25.7398 23.4628 25.7087 23.8977 25.7838 24.3202C26.4487 27.7512 28.1583 36.6033 28.1583 36.6033H24.8043C24.3965 36.6035 24.0013 36.4599 23.6863 36.1972C23.3714 35.9344 23.1564 35.5689 23.0782 35.1632C22.6763 33.0819 21.9378 29.2603 21.546 27.2358C21.4712 26.8133 21.5022 26.3786 21.6362 25.9715C21.7702 25.5643 22.0029 25.1978 22.313 24.9055L24.3105 22.9854C24.6209 22.6933 24.8538 22.3269 24.9878 21.9196C25.1218 21.5124 25.1527 21.0776 25.0775 20.6552C24.3795 17.0452 22.5144 7.39331 22.5144 7.39331V7.39704Z" fill="#7F56D9"/>
<path d="M12.9097 7.3967H16.2645C16.6723 7.39694 17.0673 7.54066 17.3822 7.80331C17.697 8.06596 17.9121 8.43126 17.9907 8.83679C18.6648 12.3284 20.3818 21.2076 21.0357 24.5957C21.1109 25.0181 21.0802 25.4529 20.9463 25.86C20.8124 26.2672 20.5798 26.6338 20.2696 26.926C19.6571 27.5132 18.8828 28.2579 18.2721 28.8461C17.9617 29.1382 17.7287 29.5046 17.5945 29.9118C17.4604 30.319 17.4293 30.7538 17.5042 31.1763C17.8859 33.1496 18.5535 36.6067 18.5535 36.6067H15.1987C14.791 36.6066 14.396 36.4629 14.0812 36.2002C13.7665 35.9376 13.5517 35.5722 13.4734 35.1666C13.4054 34.8162 13.3336 34.4424 13.2665 34.0966C13.1912 33.6742 13.222 33.2393 13.356 32.8321C13.4901 32.4249 13.723 32.0584 14.0335 31.7664L16.0309 29.8462C16.3414 29.5542 16.5744 29.1877 16.7084 28.7805C16.8424 28.3733 16.8732 27.9384 16.7979 27.516L12.9097 7.3967Z" fill="#7F56D9"/>
<path d="M45.9737 27.4919V16.5099H48.6499L51.5928 22.5984L54.52 16.5099H57.1787V27.4919H54.4713V21.1825L52.334 25.6165H50.8368L48.683 21.1825V27.4919H45.9737Z" fill="#7F56D9"/>
<path d="M59.3148 27.4919V16.5099H67.3074V18.6239H62.0241V20.9262H66.6848V23.0756H62.0241V25.3779H67.3074V27.4919H59.3148Z" fill="#7F56D9"/>
<path d="M72.476 27.6619C71.8022 27.6657 71.1293 27.6112 70.4647 27.4988C69.9118 27.413 69.372 27.2564 68.8581 27.0327V24.6941C69.3874 24.9221 69.9367 25.099 70.4987 25.2226C71.0585 25.354 71.631 25.4225 72.2056 25.4267C72.88 25.4267 73.3821 25.3646 73.712 25.2403C74.0418 25.116 74.2073 24.8432 74.2086 24.4219C74.2144 24.2975 74.1958 24.173 74.1538 24.0559C74.1118 23.9388 74.0473 23.8313 73.9639 23.7396C73.8021 23.57 73.5385 23.4193 73.173 23.2876C72.8076 23.1558 72.3113 23.0005 71.6841 22.8215C70.9441 22.5953 70.3552 22.3424 69.9175 22.0628C69.5146 21.8223 69.1878 21.4701 68.9758 21.0478C68.7845 20.6507 68.6892 20.1619 68.6898 19.5816C68.6898 18.5358 69.0598 17.7345 69.7998 17.1777C70.5398 16.6209 71.6336 16.3413 73.0811 16.3388C73.6952 16.3382 74.3083 16.3868 74.9149 16.4842C75.4052 16.5568 75.8891 16.6681 76.3624 16.817V19.1705C75.4459 18.8041 74.47 18.6144 73.4848 18.6113C72.9889 18.5978 72.4935 18.6552 72.0134 18.7818C71.6369 18.8955 71.449 19.1572 71.4496 19.5667C71.4401 19.7757 71.5125 19.98 71.651 20.1352C71.7865 20.2788 72.0195 20.4068 72.35 20.5193C72.6804 20.6317 73.132 20.7681 73.7046 20.9284C74.5911 21.1671 75.2698 21.4541 75.7407 21.7897C76.2116 22.1253 76.5374 22.5105 76.7183 22.9455C76.9027 23.4153 76.9936 23.9174 76.9859 24.4229C76.9972 24.875 76.9024 25.3234 76.7093 25.7311C76.5161 26.1389 76.2302 26.4943 75.875 26.768C75.1343 27.3633 74.0013 27.6613 72.476 27.6619Z" fill="#7F56D9"/>
<path d="M83.8484 27.6619C82.0863 27.6619 80.7458 27.207 79.8267 26.2973C78.9077 25.3876 78.4479 23.972 78.4473 22.0507C78.4473 20.0162 78.9071 18.5559 79.8267 17.6698C80.7464 16.7837 82.0869 16.34 83.8484 16.3388C85.6086 16.3388 86.9488 16.7825 87.869 17.6698C88.7893 18.5572 89.2491 20.0175 89.2485 22.0507C89.2485 23.9714 88.7887 25.387 87.869 26.2973C86.9494 27.2077 85.6092 27.6625 83.8484 27.6619ZM83.8484 25.3251C84.757 25.3251 85.4216 25.0607 85.8421 24.5319C86.2627 24.0031 86.473 23.176 86.473 22.0507C86.473 20.8234 86.2627 19.9563 85.8421 19.4492C85.4216 18.9421 84.757 18.6895 83.8484 18.6914C82.9287 18.6914 82.2583 18.944 81.8371 19.4492C81.4159 19.9544 81.2056 20.8216 81.2062 22.0507C81.2062 23.176 81.4165 24.0031 81.8371 24.5319C82.2577 25.0607 82.9281 25.3251 83.8484 25.3251Z" fill="#7F56D9"/>
<path d="M95.09 27.4919V16.5099H102.965V18.6239H97.7993V20.9262H102.342V23.0756H97.7993V27.4919H95.09Z" fill="#7F56D9"/>
<path d="M104.425 27.4919V16.5099H107.134V27.4919H104.425Z" fill="#7F56D9"/>
<path d="M109.27 27.4919V16.5099H111.593L116.203 23.0756V16.5099H118.926V27.4919H116.59L111.979 20.9439V27.4919H109.27Z" fill="#7F56D9"/>
<path d="M120.732 27.4919L124.87 16.5099H127.799L131.937 27.4919H129.111L128.135 25.0023H124.517L123.559 27.4919H120.732ZM124.888 22.9731H127.765L126.318 19.1515L124.888 22.9731Z" fill="#7F56D9"/>
<path d="M133.734 27.4919V16.5099H136.056L140.667 23.0756V16.5099H143.392V27.4919H141.054L136.443 20.9439V27.4919H133.734Z" fill="#7F56D9"/>
<path d="M151.018 27.6633C149.122 27.6633 147.678 27.1715 146.685 26.1878C145.692 25.2041 145.196 23.837 145.196 22.0866C145.196 20.2572 145.681 18.8419 146.651 17.8409C147.621 16.8398 149.071 16.3393 151.001 16.3393C151.596 16.3333 152.19 16.3848 152.776 16.493C153.287 16.5931 153.79 16.7298 154.282 16.9022V19.307C153.306 18.8973 152.259 18.6885 151.202 18.6928C150.081 18.6928 149.259 18.9653 148.738 19.5102C148.216 20.0552 147.955 20.9137 147.955 22.0856C147.955 23.2004 148.231 24.0191 148.783 24.5417C149.335 25.0643 150.153 25.3259 151.239 25.3265C151.764 25.3267 152.287 25.2781 152.803 25.1811C153.316 25.0856 153.819 24.9343 154.301 24.73V27.1534C153.811 27.3162 153.311 27.4409 152.803 27.5263C152.212 27.6222 151.615 27.6681 151.018 27.6633Z" fill="#7F56D9"/>
<path d="M156.098 27.4919V16.5099H164.09V18.6239H158.807V20.9262H163.468V23.0756H158.807V25.3779H164.09V27.4919H156.098Z" fill="#7F56D9"/>
</svg>
